<svg id="hills" width="3319px" height="93px" viewBox="0 0 3319 93" version="1.1" xmlns="http://www.w3.org/2000/svg" xmlns:xlink="http://www.w3.org/1999/xlink">
    <g fill="#092322">
        <polygon id="Hills-1" points="0.0937131832 37.3840459 23.3544893 33.9403491 43.9422121 33.9403491 56.637354 31.5595446 56.637354 19.5438348 47.0936601 19.5438348 56.637354 9.03032138 51.3973504 9.03032138 58.6328367 0.823154138 70.0994165 9.03032138 63.5247477 9.03032138 70.0994165 19.1036 63.5247477 19.5438348 63.5247477 31.5595446 72.390871 33.9403491 101.405413 29.6534119 121.116389 33.9403491 121.116389 27.2558543 117.532459 27.2558543 121.116389 22.8686799 118.373189 22.3673574 122.11281 16.8343991 124.783698 21.1730579 123.622442 22.3673574 126.465158 25.5726117 123.622442 27.2558543 125.902468 33.9403491 132.160031 33.3261173 131.282009 27.2558543 128.118767 28.5323974 130.371414 22.3673574 128.118767 22.8686799 129.828079 16.3061694 134.111035 19.5438348 132.694398 22.3673574 137.674107 25.5726117 134.111035 27.2558543 136.015778 33.3261173 152.138821 34.8036499 183.910995 36.2999528 212.759341 33.9403491 236.582579 36.2999528 236.582579 27.2558543 229.768337 28.5323974 235.492415 19.1036 230.567263 19.5438348 237.70654 8.2296793 246.296972 18.2914 240.890738 18.2914 250.500142 25.5726117 240.890738 27.2558543 241.994565 36.2999528 262.012298 38.1480533 311.729289 34.8036499 386.071442 38.1480533 471.088602 34.8036499 541.502522 38.1480533 541.502522 31.5595446 535.641701 32.4091917 541.502522 26.4758476 535.641701 25.5726117 542.428131 15.0694793 550.287047 23.7372431 545.630642 26.4758476 552.553973 29.6534119 545.630642 31.5595446 545.630642 39.4335537 557.427974 39.4335537 571.478361 38.1480533 571.478361 32.4091917 566.221277 33.3261173 570.163196 26.4758476 566.221277 26.4758476 571.478361 20.1283539 573.462729 13.8613963 577.920523 20.1283539 574.135102 20.1283539 578.98307 25.1302883 575.982953 25.5726117 582.357713 32.0131096 575.579738 32.0131096 576.45737 38.4290779 587.254185 39.4335537 587.254185 34.8036499 577.920523 33.9403491 585.415415 23.7372431 581.02805 23.7372431 589.263407 13.8613963 584.219922 13.8613963 591.537645 4.77766937 598.579844 13.8613963 592.996987 13.8613963 601.577916 23.7372431 592.996987 23.7372431 604.702075 34.8036499 592.996987 33.9403491 592.996987 39.4335537 628.025857 42.6575093 651.576129 39.4335537 698.6183 38.1480533 733.646002 42.6575093 801.771574 36.2999528 856.556428 44.6562237 879.406216 39.4335537 916.236329 39.4335537 916.236329 92.8910855 879.406216 92.8910855 0.0937131832 92.8910855"></polygon>
        <polygon id="Hills-2" points="305.093713 37.3840459 328.354489 33.9403491 348.942212 33.9403491 361.637354 31.5595446 361.637354 19.5438348 352.09366 19.5438348 361.637354 9.03032138 356.39735 9.03032138 363.632837 0.823154138 375.099416 9.03032138 368.524748 9.03032138 375.099416 19.1036 368.524748 19.5438348 368.524748 31.5595446 377.390871 33.9403491 406.405413 29.6534119 426.116389 33.9403491 426.116389 27.2558543 422.532459 27.2558543 426.116389 22.8686799 423.373189 22.3673574 427.11281 16.8343991 429.783698 21.1730579 428.622442 22.3673574 431.465158 25.5726117 428.622442 27.2558543 430.902468 33.9403491 437.160031 33.3261173 436.282009 27.2558543 433.118767 28.5323974 435.371414 22.3673574 433.118767 22.8686799 434.828079 16.3061694 439.111035 19.5438348 437.694398 22.3673574 442.674107 25.5726117 439.111035 27.2558543 441.015778 33.3261173 457.138821 34.8036499 488.910995 36.2999528 517.759341 33.9403491 541.582579 36.2999528 541.582579 27.2558543 534.768337 28.5323974 540.492415 19.1036 535.567263 19.5438348 542.70654 8.2296793 551.296972 18.2914 545.890738 18.2914 555.500142 25.5726117 545.890738 27.2558543 546.994565 36.2999528 567.012298 38.1480533 616.729289 34.8036499 691.071442 38.1480533 776.088602 34.8036499 846.502522 38.1480533 846.502522 31.5595446 840.641701 32.4091917 846.502522 26.4758476 840.641701 25.5726117 847.428131 15.0694793 855.287047 23.7372431 850.630642 26.4758476 857.553973 29.6534119 850.630642 31.5595446 850.630642 39.4335537 862.427974 39.4335537 876.478361 38.1480533 876.478361 32.4091917 871.221277 33.3261173 875.163196 26.4758476 871.221277 26.4758476 876.478361 20.1283539 878.462729 13.8613963 882.920523 20.1283539 879.135102 20.1283539 883.98307 25.1302883 880.982953 25.5726117 887.357713 32.0131096 880.579738 32.0131096 881.45737 38.4290779 892.254185 39.4335537 892.254185 34.8036499 882.920523 33.9403491 890.415415 23.7372431 886.02805 23.7372431 894.263407 13.8613963 889.219922 13.8613963 896.537645 4.77766937 903.579844 13.8613963 897.996987 13.8613963 906.577916 23.7372431 897.996987 23.7372431 909.702075 34.8036499 897.996987 33.9403491 897.996987 39.4335537 933.025857 42.6575093 956.576129 39.4335537 1003.6183 38.1480533 1038.646 42.6575093 1106.77157 36.2999528 1161.55643 44.6562237 1184.40622 39.4335537 1221.23633 39.4335537 1221.23633 92.8910855 1184.40622 92.8910855 305.093713 92.8910855"></polygon>
        <polygon id="Hills-3" points="1012.99116 40.1657553 1040.35449 33.9403491 1060.94221 33.9403491 1073.63735 31.5595446 1073.63735 19.5438348 1064.09366 19.5438348 1073.63735 9.03032138 1068.39735 9.03032138 1075.63284 0.823154138 1087.09942 9.03032138 1080.52475 9.03032138 1087.09942 19.1036 1080.52475 19.5438348 1080.52475 31.5595446 1089.39087 33.9403491 1118.40541 29.6534119 1138.11639 33.9403491 1138.11639 27.2558543 1134.53246 27.2558543 1138.11639 22.8686799 1135.37319 22.3673574 1139.11281 16.8343991 1141.7837 21.1730579 1140.62244 22.3673574 1143.46516 25.5726117 1140.62244 27.2558543 1142.90247 33.9403491 1149.16003 33.3261173 1148.28201 27.2558543 1145.11877 28.5323974 1147.37141 22.3673574 1145.11877 22.8686799 1146.82808 16.3061694 1151.11104 19.5438348 1149.6944 22.3673574 1154.67411 25.5726117 1151.11104 27.2558543 1153.01578 33.3261173 1169.13882 34.8036499 1200.911 36.2999528 1229.75934 33.9403491 1253.58258 36.2999528 1253.58258 27.2558543 1246.76834 28.5323974 1252.49242 19.1036 1247.56726 19.5438348 1254.70654 8.2296793 1263.29697 18.2914 1257.89074 18.2914 1267.50014 25.5726117 1257.89074 27.2558543 1258.99456 36.2999528 1279.0123 38.1480533 1328.72929 34.8036499 1403.07144 38.1480533 1488.0886 34.8036499 1558.50252 38.1480533 1558.50252 31.5595446 1552.6417 32.4091917 1558.50252 26.4758476 1552.6417 25.5726117 1559.42813 15.0694793 1567.28705 23.7372431 1562.63064 26.4758476 1569.55397 29.6534119 1562.63064 31.5595446 1562.63064 39.4335537 1574.42797 39.4335537 1588.47836 38.1480533 1588.47836 32.4091917 1583.22128 33.3261173 1587.1632 26.4758476 1583.22128 26.4758476 1588.47836 20.1283539 1590.46273 13.8613963 1594.92052 20.1283539 1591.1351 20.1283539 1595.98307 25.1302883 1592.98295 25.5726117 1599.35771 32.0131096 1592.57974 32.0131096 1593.45737 38.4290779 1604.25419 39.4335537 1604.25419 34.8036499 1594.92052 33.9403491 1602.41541 23.7372431 1598.02805 23.7372431 1606.26341 13.8613963 1601.21992 13.8613963 1608.53765 4.77766937 1615.57984 13.8613963 1609.99699 13.8613963 1618.57792 23.7372431 1609.99699 23.7372431 1621.70207 34.8036499 1609.99699 33.9403491 1609.99699 39.4335537 1645.02586 42.6575093 1668.57613 39.4335537 1715.6183 38.1480533 1750.646 42.6575093 1818.77157 36.2999528 1873.55643 44.6562237 1896.40622 39.4335537 1933.23633 39.4335537 1933.23633 92.8910855 1896.40622 92.8910855 1017.09371 92.8910855"></polygon>
        <polygon id="Hills-4" points="1719 37.163784 1742.26078 33.757491 1762.8485 33.757491 1775.54364 31.4025458 1775.54364 19.5173451 1765.99995 19.5173451 1775.54364 9.11802473 1770.30364 9.11802473 1777.53912 1 1789.0057 9.11802473 1782.43103 9.11802473 1789.0057 19.081892 1782.43103 19.5173451 1782.43103 31.4025458 1791.29716 33.757491 1820.3117 29.5171166 1840.02268 33.757491 1840.02268 27.1456002 1836.43875 27.1456002 1840.02268 22.8060773 1837.27948 22.3101999 1841.0191 16.8373381 1843.68998 21.1288724 1842.52873 22.3101999 1845.37144 25.4806403 1842.52873 27.1456002 1844.80876 33.757491 1851.06632 33.1499308 1850.1883 27.1456002 1847.02505 28.4082781 1849.2777 22.3101999 1847.02505 22.8060773 1848.73437 16.3148458 1853.01732 19.5173451 1851.60068 22.3101999 1856.58039 25.4806403 1853.01732 27.1456002 1854.92206 33.1499308 1871.04511 34.6114151 1902.81728 36.0914658 1931.66563 33.757491 1955.48887 36.0914658 1955.48887 27.1456002 1948.67462 28.4082781 1954.3987 19.081892 1949.47355 19.5173451 1956.61283 8.32607885 1965.20326 18.2785137 1959.79703 18.2785137 1969.40643 25.4806403 1959.79703 27.1456002 1960.90085 36.0914658 1980.91858 37.9194931 2030.63558 34.6114151 2104.97773 37.9194931 2189.99489 34.6114151 2260.40881 37.9194931 2260.40881 31.4025458 2254.54799 32.2429643 2260.40881 26.3740655 2254.54799 25.4806403 2261.33442 15.0915881 2269.19333 23.6652066 2264.53693 26.3740655 2271.46026 29.5171166 2264.53693 31.4025458 2264.53693 39.1910309 2276.33426 39.1910309 2290.38465 37.9194931 2290.38465 32.2429643 2285.12756 33.1499308 2289.06948 26.3740655 2285.12756 26.3740655 2290.38465 20.0955155 2292.36902 13.8966267 2296.82681 20.0955155 2293.04139 20.0955155 2297.88936 25.0431211 2294.88924 25.4806403 2301.264 31.8511844 2294.48602 31.8511844 2295.36366 38.1974653 2306.16047 39.1910309 2306.16047 34.6114151 2296.82681 33.757491 2304.3217 23.6652066 2299.93434 23.6652066 2308.16969 13.8966267 2303.12621 13.8966267 2310.44393 4.91156309 2317.48613 13.8966267 2311.90327 13.8966267 2320.4842 23.6652066 2311.90327 23.6652066 2323.60836 34.6114151 2311.90327 33.757491 2311.90327 39.1910309 2346.93214 42.3799695 2370.48242 39.1910309 2417.52459 37.9194931 2452.55229 42.3799695 2520.67786 36.0914658 2575.46271 44.3569747 2598.3125 39.1910309 2635.14262 39.1910309 2635.14262 92.0679313 2598.3125 92.0679313 1719 92.0679313"></polygon>
        <polygon id="Hills-4" points="2397.88811 40.7443881 2425.26078 33.757491 2445.8485 33.757491 2458.54364 31.4025458 2458.54364 19.5173451 2448.99995 19.5173451 2458.54364 9.11802473 2453.30364 9.11802473 2460.53912 1 2472.0057 9.11802473 2465.43103 9.11802473 2472.0057 19.081892 2465.43103 19.5173451 2465.43103 31.4025458 2474.29716 33.757491 2503.3117 29.5171166 2523.02268 33.757491 2523.02268 27.1456002 2519.43875 27.1456002 2523.02268 22.8060773 2520.27948 22.3101999 2524.0191 16.8373381 2526.68998 21.1288724 2525.52873 22.3101999 2528.37144 25.4806403 2525.52873 27.1456002 2527.80876 33.757491 2534.06632 33.1499308 2533.1883 27.1456002 2530.02505 28.4082781 2532.2777 22.3101999 2530.02505 22.8060773 2531.73437 16.3148458 2536.01732 19.5173451 2534.60068 22.3101999 2539.58039 25.4806403 2536.01732 27.1456002 2537.92206 33.1499308 2554.04511 34.6114151 2585.81728 36.0914658 2614.66563 33.757491 2638.48887 36.0914658 2638.48887 27.1456002 2631.67462 28.4082781 2637.3987 19.081892 2632.47355 19.5173451 2639.61283 8.32607885 2648.20326 18.2785137 2642.79703 18.2785137 2652.40643 25.4806403 2642.79703 27.1456002 2643.90085 36.0914658 2663.91858 37.9194931 2713.63558 34.6114151 2787.97773 37.9194931 2872.99489 34.6114151 2943.40881 37.9194931 2943.40881 31.4025458 2937.54799 32.2429643 2943.40881 26.3740655 2937.54799 25.4806403 2944.33442 15.0915881 2952.19333 23.6652066 2947.53693 26.3740655 2954.46026 29.5171166 2947.53693 31.4025458 2947.53693 39.1910309 2959.33426 39.1910309 2973.38465 37.9194931 2973.38465 32.2429643 2968.12756 33.1499308 2972.06948 26.3740655 2968.12756 26.3740655 2973.38465 20.0955155 2975.36902 13.8966267 2979.82681 20.0955155 2976.04139 20.0955155 2980.88936 25.0431211 2977.88924 25.4806403 2984.264 31.8511844 2977.48602 31.8511844 2978.36366 38.1974653 2989.16047 39.1910309 2989.16047 34.6114151 2979.82681 33.757491 2987.3217 23.6652066 2982.93434 23.6652066 2991.16969 13.8966267 2986.12621 13.8966267 2993.44393 4.91156309 3000.48613 13.8966267 2994.90327 13.8966267 3003.4842 23.6652066 2994.90327 23.6652066 3006.60836 34.6114151 2994.90327 33.757491 2994.90327 39.1910309 3029.93214 42.3799695 3053.48242 39.1910309 3100.52459 37.9194931 3135.55229 42.3799695 3203.67786 36.0914658 3258.46271 44.3569747 3281.3125 39.1910309 3318.14262 39.1910309 3318.14262 92.0679313 3281.3125 92.0679313 2402 92.0679313"></polygon>
    </g>
</svg>