<svg id="mountains-level-1" width="2617px" height="358px" version="1.1" xmlns="http://www.w3.org/2000/svg" xmlns:xlink="http://www.w3.org/1999/xlink">
  <path fill="#0B2A29" d="M1322.62425,85.4740408 L1289.09116,56.6248254 L1251.24979,63.6637707 L1251.24979,95.1009819 L1225.21255,112.119499 L1208.97363,90.3462034 L1219.0009,86.8401722 L1205.22045,65.0382598 L1215.74982,65.0382598 L1205.22045,39.7797458 L1186.41293,63.6637707 L1197.65946,66.7258029 L1177.23118,89.3107839 L1187.70244,90.3462034 L1171.27621,121.022893 L1192.77027,122.017555 L1189.62239,148.494465 L1163.76812,153.374118 L1157.53913,182.500279 L1149.27832,168.653927 L1160.87519,167.576016 L1149.27832,144.194958 L1132.22945,166.264831 L1142.82733,168.653927 L1120.78694,193.756348 L1133.29609,193.756348 L1116.21254,224.042804 L1135.8725,225.085161 L1135.8725,239.267114 L1088.42098,218.247403 L1089.70961,193.756348 L1107.41494,187.721604 L1094.06896,160.135901 L1103.40507,157.419538 L1090.65658,135.594212 L1101.2215,137.097912 L1089.70961,109.556098 L1070.7408,134.617761 L1082.08185,135.594212 L1060.8176,158.924973 L1074.10375,158.924973 L1061.88423,178.763577 L1024.12264,163.08226 L1025.37833,133.097585 L1043.31346,127.093192 L1029.10636,100.928469 L1039.91756,97.5403749 L1025.37833,76.1998053 L1036.37684,76.1998053 L1025.37833,51.1979782 L1008.49076,74.6935039 L1017.69853,74.6935039 L1017.69853,76.1998053 L997.730721,97.5403749 L1010.85644,97.5403749 L991.460103,130.695481 L1012.23873,133.097585 L1010.85644,160.135901 L1006.41038,158.924973 L965.7125,103.288948 L938.543579,103.288948 L938.543579,99.0232622 L950.643418,92.1352073 L941.35933,74.6935039 L948.800649,72.5706337 L938.543579,60.6147462 L945.292883,59.6582406 L936.614958,42.3457479 L925.835843,59.6582406 L931.305182,59.6582406 L918.334689,74.6935039 L925.835843,74.6935039 L912.915647,96.3375885 L929.104265,97.5403749 L929.104265,103.288948 L912.915647,103.288948 L903.708739,109.556098 L903.708739,106.671839 L909.912584,103.288948 L901.081167,92.1352073 L901.081167,89.3107839 L909.912584,89.3107839 L901.081167,70.6489504 L887.257363,89.3107839 L893.751715,89.3107839 L893.751715,92.1352073 L880.644207,106.671839 L888.459282,108.541491 L888.459282,110.96354 L877.834526,128.289908 L871.528353,134.617761 L870.077552,131.617299 L875.146251,127.093192 L867.090965,115.81978 L852.865655,134.617761 L861.987579,134.617761 L846.782349,149.594923 L852.865655,149.594923 L774.316862,201.297917 L774.316862,229.068144 L756.013179,235.663958 L686.042585,163.08226 L633.648974,135.594212 L633.648974,122.017555 L643.547896,119.651873 L635.346923,108.541491 L641.183948,106.671839 L635.346923,97.5403749 L640.177146,96.3375885 L633.648974,85.4257925 L625.832164,96.3375885 L629.765717,97.5403749 L620.857121,108.541491 L627.073106,106.671839 L620.857121,121.022893 L627.073106,121.022893 L627.073106,130.695481 L608.888227,122.017555 L594.389753,133.097585 L594.389753,128.289908 L598.23919,125.089993 L594.389753,119.651873 L600.910121,118.063189 L596.456256,110.96354 L600.910121,109.556098 L596.456256,97.5403749 L586.481022,108.541491 L589.143281,109.556098 L581.233683,118.063189 L585.423923,119.651873 L577.777081,129.26896 L585.423923,129.26896 L585.423923,135.594212 L570.950597,144.194958 L570.950597,139.938812 L577.777081,135.594212 L570.950597,127.093192 L574.483511,123.046904 L569.039321,117.048581 L573.314545,114.769618 L567.000568,105.182881 L560.856558,115.81978 L564.227308,117.048581 L557.869972,127.093192 L562.606539,127.093192 L557.869972,141.294223 L565.387603,141.294223 L565.387603,144.194958 L549.773061,151.994425 L548.842571,148.818792 L555.258876,144.194958 L547.126411,135.594212 L551.018339,130.695481 L544.952377,124.200261 L548.842571,122.017555 L541.086464,112.119499 L535.932781,124.200261 L539.764006,125.089993 L534.012832,135.594212 L539.764006,135.594212 L535.932781,150.630343 L543.732247,148.818792 L544.952377,150.630343 L522.544305,158.924973 L516.093312,150.630343 L519.079899,147.201833 L512.484086,139.043009 L516.093312,137.097912 L508.926024,129.26896 L503.39685,139.938812 L508.926024,139.938812 L506.980927,151.994425 L503.39685,164.093399 L436.35821,181.237657 L385.210744,213.816085 L333.918458,187.721604 L264.693644,182.500279 L266.460101,178.763577 L282.435391,175.979044 L277.426528,151.994425 L287.188435,151.994425 L282.435391,131.617299 L290.951152,131.617299 L287.188435,108.541491 L269.251571,124.200261 L274.004614,129.26896 L254.216309,141.294223 L260.956942,147.201833 L242.543125,167.576016 L256.503077,175.979044 L252.44118,181.237657 L242.543125,181.237657 L223.291608,175.979044 L220.543497,155.127567 L231.594042,147.201833 L216.865764,127.093192 L223.291608,119.651873 L208.284964,108.541491 L216.865764,105.182881 L202.977789,85.4257925 L192.643539,108.541491 L201.263363,108.541491 L190.126967,129.26896 L199.189055,129.26896 L192.643539,157.419538 L208.284964,155.127567 L210.811075,174.758914 L191.696573,171.158359 L184.631613,149.594923 L169.903335,171.158359 L147.56377,175.979044 L147.56377,155.127567 L161.831573,148.494465 L149.705718,128.289908 L157.667348,124.200261 L146.156328,105.182881 L155.209744,105.182881 L143.332772,83.8214992 L129.615632,105.182881 L139.659375,105.182881 L122.901015,128.289908 L132.688938,128.289908 L120.478099,155.127567 L136.204508,155.127567 L136.204508,178.763577 L93.2319991,191.657759 L79.5113906,206.608038 L69.8509445,200.404193 L84.2132702,193.756348 L71.302613,176.951982 L79.5113906,173.25955 L68.4695181,160.135901 L76.815311,160.135901 L65.5523062,141.294223 L51.4050425,160.135901 L60.2942073,160.135901 L45.7368866,176.951982 L54.6136876,176.951982 L41.6327506,201.297917 L0,232.343458 L0,357.677119 L1180.27809,357.677119 L1180.27809,357.793228 L2616.70996,357.793228 L2616.70996,93.8064881 L2588.29712,68.9646099 L2563.18484,89.4268932 L2560.05956,81.9997339 L2586.04828,76.3159146 L2557.59467,51.3140875 L2568.14452,44.8673629 L2552.60781,23.5285129 L2563.18484,22.0433267 L2548.34385,0.116109305 L2534.19721,23.5285129 L2545.73628,26.0559111 L2525.98725,51.3140875 L2539.70585,51.3140875 L2525.98725,85.5419018 L2548.34385,83.9376085 L2548.34385,93.8064881 L2529.71496,108.6576 L2469.36926,56.7409347 L2431.52789,63.77988 L2431.52789,95.2170912 L2405.49064,112.235608 L2389.25173,90.4623127 L2399.27899,86.9562815 L2385.49855,65.1543691 L2396.02791,65.1543691 L2385.49855,39.8958551 L2366.69103,63.77988 L2377.93756,66.8419122 L2357.50927,89.4268932 L2367.98053,90.4623127 L2351.55431,121.139002 L2373.04837,122.133664 L2369.90048,148.610574 L2344.04622,153.490227 L2337.81722,182.616389 L2329.55641,168.770037 L2341.15328,167.692125 L2329.55641,144.311068 L2312.50755,166.38094 L2323.10542,168.770037 L2301.06503,193.872457 L2313.57419,193.872457 L2296.49063,224.158913 L2316.15059,225.20127 L2316.15059,239.383223 L2268.69907,218.363512 L2269.98771,193.872457 L2287.69303,187.837713 L2274.34705,160.252011 L2283.68317,157.535648 L2270.93468,135.710321 L2281.4996,137.214021 L2269.98771,109.672207 L2251.01889,134.73387 L2262.35995,135.710321 L2241.09569,159.041082 L2254.38184,159.041082 L2242.16233,178.879686 L2204.40074,163.198369 L2205.65642,133.213694 L2223.59155,127.209301 L2209.38445,101.044578 L2220.19565,97.6564842 L2205.65642,76.3159146 L2216.65494,76.3159146 L2205.65642,51.3140875 L2188.76885,74.8096132 L2197.97663,74.8096132 L2197.97663,76.3159146 L2178.00882,97.6564842 L2191.13453,97.6564842 L2171.7382,130.81159 L2192.51683,133.213694 L2191.13453,160.252011 L2186.68848,159.041082 L2145.99059,103.405057 L2118.82167,103.405057 L2118.82167,99.1393715 L2130.92151,92.2513166 L2121.63742,74.8096132 L2129.07874,72.686743 L2118.82167,60.7308555 L2125.57098,59.7743499 L2116.89305,42.4618572 L2106.11394,59.7743499 L2111.58328,59.7743499 L2098.61278,74.8096132 L2106.11394,74.8096132 L2093.19374,96.4536978 L2109.38236,97.6564842 L2109.38236,103.405057 L2093.19374,103.405057 L2083.98683,109.672207 L2083.98683,106.787948 L2090.19068,103.405057 L2081.35926,92.2513166 L2081.35926,89.4268932 L2090.19068,89.4268932 L2081.35926,70.7650598 L2067.53546,89.4268932 L2074.02981,89.4268932 L2074.02981,92.2513166 L2060.9223,106.787948 L2068.73738,108.6576 L2068.73738,111.07965 L2058.11262,128.406017 L2051.80645,134.73387 L2050.35565,131.733408 L2055.42435,127.209301 L2047.36906,115.935889 L2033.14375,134.73387 L2042.26567,134.73387 L2027.06044,149.711032 L2033.14375,149.711032 L1954.59496,201.414027 L1954.59496,229.184254 L1936.29127,235.780067 L1866.32068,163.198369 L1813.92707,135.710321 L1813.92707,122.133664 L1823.82599,119.767982 L1815.62502,108.6576 L1821.46204,106.787948 L1815.62502,97.6564842 L1820.45524,96.4536978 L1813.92707,85.5419018 L1806.11026,96.4536978 L1810.04381,97.6564842 L1801.13522,108.6576 L1807.3512,106.787948 L1801.13522,121.139002 L1807.3512,121.139002 L1807.3512,130.81159 L1789.16632,122.133664 L1774.66785,133.213694 L1774.66785,128.406017 L1778.51728,125.206103 L1774.66785,119.767982 L1781.18822,118.179298 L1776.73435,111.07965 L1781.18822,109.672207 L1776.73435,97.6564842 L1766.75912,108.6576 L1769.42138,109.672207 L1761.51178,118.179298 L1765.70202,119.767982 L1758.05518,129.38507 L1765.70202,129.38507 L1765.70202,135.710321 L1751.22869,144.311068 L1751.22869,140.054921 L1758.05518,135.710321 L1751.22869,127.209301 L1754.76161,123.163013 L1749.31741,117.164691 L1753.59264,114.885727 L1747.27866,105.298991 L1741.13465,115.935889 L1744.5054,117.164691 L1738.14807,127.209301 L1742.88463,127.209301 L1738.14807,141.410332 L1745.6657,141.410332 L1745.6657,144.311068 L1730.05116,152.110535 L1729.12067,148.934901 L1735.53697,144.311068 L1727.40451,135.710321 L1731.29643,130.81159 L1725.23047,124.31637 L1729.12067,122.133664 L1721.36456,112.235608 L1716.21088,124.31637 L1720.0421,125.206103 L1714.29093,135.710321 L1720.0421,135.710321 L1716.21088,150.746452 L1724.01034,148.934901 L1725.23047,150.746452 L1702.8224,159.041082 L1696.37141,150.746452 L1699.35799,147.317942 L1692.76218,139.159118 L1696.37141,137.214021 L1689.20412,129.38507 L1683.67494,140.054921 L1689.20412,140.054921 L1687.25902,152.110535 L1683.67494,164.209508 L1616.6363,181.353767 L1565.48884,213.932194 L1514.19655,187.837713 L1444.97174,182.616389 L1446.73819,178.879686 L1462.71349,176.095153 L1457.70462,152.110535 L1467.46653,152.110535 L1462.71349,131.733408 L1471.22925,131.733408 L1467.46653,108.6576 L1449.52966,124.31637 L1454.28271,129.38507 L1434.4944,141.410332 L1441.23504,147.317942 L1435.92006,153.198755 C1432.82976,139.505301 1427.6194,121.446803 1420.28898,99.0232622 L1386.57514,90.2638896 L1383.25588,85.5419018 L1382.25906,87.7715896 L1379.78147,81.8836246 L1405.77018,76.1998053 L1377.31657,51.1979782 L1387.86642,44.7512536 L1372.32972,23.4124036 L1382.90674,21.9272174 L1368.06575,2.27373675e-13 L1353.91912,23.4124036 L1365.45819,25.9398018 L1345.70915,51.1979782 L1359.42776,51.1979782 L1345.70915,85.4257925 L1368.06575,83.8214992 L1368.06575,93.6903788 L1349.43687,108.541491 L1326.15313,88.5100088 L1323.61087,83.9376085 L1322.62425,85.4740408 Z"></path>
</svg>