<svg id="mountains-level-4" smooth-parallax="" end-position-x="-.5" version="1.1" xmlns="http://www.w3.org/2000/svg" xmlns:xlink="http://www.w3.org/1999/xlink">
    <polygon fill="#4FA6A7" points="34.1997497 305.685822 86.3786744 267.212783 124.645589 172.629675 147.735118 158.426214 164.867436 172.629675 180.535331 214.735331 223.074661 267.212783 248.81579 192.278507 349.334863 109.311243 388.298444 38.3792433 436.638592 21.3820083 460.844211 0.183449232 490.232177 38.3792433 518.283681 85.0345562 552.072023 118.481645 612.646494 202.003399 676.931782 214.735331 736.326185 202.003399 782.348849 158.426214 830.127399 96.0248219 871.005341 65.244456 916.592285 62.1654199 944.650897 73.3618419 955.738763 56.9909495 980.603884 48.3484028 994.66163 96.0248219 1118.40158 214.735331 1155.75783 229.969471 1183.41944 214.735331 1205.07184 158.426214 1205.07184 113.500069 1222.23773 104.443383 1234.07209 104.443383 1257.04011 139.413068 1290.52687 150.176511 1303.98851 172.629675 1320.08348 182.098715 1373.20842 113.500069 1385.20801 93.2658011 1401.48706 85.0345562 1429.8891 132.245109 1495.23915 288.306484 1495.23915 556.122376 1.67908907 556.122376 1.67908907 335.844982"></polygon>
</svg>