<svg id="cloud-1" width="205px" height="100px" version="1.1" xmlns="http://www.w3.org/2000/svg" xmlns:xlink="http://www.w3.org/1999/xlink">
    <path fill="#FFFFFF" d="M175,100 C191.568542,100 205,86.5685425 205,70 C205,53.4314575 191.568542,40 175,40 C173.259868,40 171.554339,40.148156 169.89534,40.4325419 C163.042814,28.2383854 149.983496,20 135,20 C131.828009,20 128.742252,20.3692154 125.783362,21.0670145 C116.72219,8.31763507 101.832439,0 85,0 C64.4067983,0 46.721344,12.4495463 39.0593936,30.2328824 C37.7275978,30.0790622 36.3730319,30 35,30 C15.6700338,30 0,45.6700338 0,65 C0,84.3299662 15.6700338,100 35,100 L175,100 Z"></path>
</svg>