<svg id="cloud-2" smooth-parallax="" end-movement=".6" end-position-y="-5" end-position-x="-2"  width="60px" height="29px" version="1.1" xmlns="http://www.w3.org/2000/svg" xmlns:xlink="http://www.w3.org/1999/xlink">
  <path fill="#FFFFFF" d="M50.6848407,28.9627661 C55.4835489,28.9627661 59.3736706,25.0726445 59.3736706,20.2739363 C59.3736706,15.4752281 55.4835489,11.5851065 50.6848407,11.5851065 C50.1808502,11.5851065 49.6868819,11.6280165 49.2063899,11.7103826 C47.2217089,8.17861751 43.4393692,5.79255323 39.0997343,5.79255323 C38.1810378,5.79255323 37.2873173,5.89948822 36.430341,6.10159013 C33.8059748,2.40901719 29.4934911,0 24.6183512,0 C18.6539904,0 13.5317936,3.60573298 11.3126808,8.75627903 C10.9269559,8.71172844 10.5346362,8.68882984 10.1369681,8.68882984 C4.53847523,8.68882984 0,13.2273051 0,18.825798 C0,24.4242909 4.53847523,28.9627661 10.1369681,28.9627661 L50.6848407,28.9627661 Z"></path>
</svg>