<svg id="cloud-3" width="123px" height="60px" version="1.1" xmlns="http://www.w3.org/2000/svg" xmlns:xlink="http://www.w3.org/1999/xlink">
  <path fill="#FFFFFF" d="M105,60 C114.941125,60 123,51.9411255 123,42 C123,32.0588745 114.941125,24 105,24 C103.955921,24 102.932603,24.0888936 101.937204,24.2595252 C97.8256883,16.9430312 89.9900976,12 81,12 C79.0968051,12 77.2453512,12.2215292 75.4700172,12.6402087 C70.0333137,4.99058104 61.0994632,0 51,0 C38.644079,0 28.0328064,7.46972779 23.4356362,18.1397295 C22.6365587,18.0474373 21.8238191,18 21,18 C9.40202025,18 0,27.4020203 0,39 C0,50.5979797 9.40202025,60 21,60 L105,60 Z"></path>
</svg>
