<svg id="mountains-level-2" smooth-parallax="" start-movement=".05" end-position-x="-.5" width="2164px" height="422px" version="1.1" xmlns="http://www.w3.org/2000/svg" xmlns:xlink="http://www.w3.org/1999/xlink">
    <path fill="#295757" d="M1079.5075,264.936573 L1070.91487,256.091871 L1070.91487,231.223354 L1025.29803,180.491949 L990.283236,171.929298 L935.827538,202.552284 L897.778984,239.376287 L862.810222,256.091871 L781.21184,135.551842 L755.749463,196.300628 L764.174006,220.630527 L747.099344,250.664255 L696.137759,339.720429 L676.613994,263.614114 L585.744011,180.491949 L490.201399,189.008564 L359.335549,263.614114 L310.049666,299.268809 L262.305981,311.403834 L245.95408,339.720429 L219.133647,347.739858 L207.311665,372.838554 L181.761819,372.838554 L154.536271,347.739858 L141.126055,305.520465 L96.2780194,305.520465 L82.8724066,299.268809 L53.1517211,321.964437 L33.9916386,372.838554 L0.836685539,413.51575 L0.836685539,556.884911 L1083.20551,556.884911 L2165.57433,556.884911 L2165.57433,328.800748 L2084.9427,285.177263 L2051.10181,202.552284 L2026.2333,239.376287 L1957.8748,250.664255 L1892.64673,263.614114 L1840.93477,305.520465 L1792.91487,256.091871 L1741.83554,220.630527 L1699.44422,196.300628 L1657.82754,202.552284 L1619.77898,239.376287 L1584.81022,256.091871 L1532.08164,180.491949 L1486.17401,220.630527 L1444.20551,250.664255 L1423.85644,318.132938 L1407.46623,309.26547 L1398.61399,263.614114 L1307.74401,180.491949 L1212.2014,189.008564 L1081.33555,263.614114 L1079.5075,264.936573 Z"></path>
</svg>