<svg id="mountains-level-3" smooth-parallax="" start-movement=".05" end-position-x="-.5" width="1899px" height="513px" version="1.1" xmlns="http://www.w3.org/2000/svg" xmlns:xlink="http://www.w3.org/1999/xlink">
    <path fill="#3F8080" d="M1000.89001,234.713572 L989.152999,224.67437 L966.347006,178.623577 L959.788837,145.102716 L926.228084,110.52074 L897.05939,124.650323 L890.940028,151.932147 L851.610959,193.898047 L820.559385,290.07256 L747.641639,258.626059 L719.378483,205.275114 L689.352121,104.983794 L673.176102,53.3282394 L640.867944,44.2608925 L575.553526,104.983794 L530.093127,151.932147 L423.798131,205.275114 L397.808793,264.749411 L332.84542,276.214239 L309.999535,245.354144 L273.726158,217.446023 L231.648562,238.604496 L147.138335,258.626059 L142.191784,276.214239 L98.1116329,233.857402 L61.4832212,224.67437 L53.3972061,209.834717 L1.30683352,172.544106 L1.30683352,556.512143 L1484.82134,556.512143 L1484.85623,556.251251 L1900.5145,556.251251 L1900.5145,330.959037 L1834.9543,311.001584 L1789.42454,259.028643 L1741.5218,198.574132 L1606.66943,273.755099 L1584.76898,240.973623 L1534.40192,259.028643 L1516.87373,274.514007 L1499.75046,245.354144 L1460.74145,217.446023 L1412.42544,224.67437 L1373.73138,258.626059 L1364.98037,261.430636 L1341.92125,244.839771 L1312.75256,254.705688 L1306.63319,273.755099 L1291.61811,284.942232 L1275.61016,290.07256 L1287.30636,217.446023 L1261.9872,193.898047 L1190.97627,151.932147 L1169.07581,104.983794 L1118.70875,130.84149 L1089.99881,167.166726 L1076.82991,202.546086 L1056.56111,198.574132 L1000.89001,234.713572 Z"></path>
</svg>